<svg width="19" height="19" viewBox="0 0 19 19"  xmlns="http://www.w3.org/2000/svg">
<path d="M9.03932 0.0109879C4.02145 0.249911 0.0616341 4.42883 0.0768565 9.45239C0.0814914 10.9824 0.450872 12.4266 1.10248 13.7027L0.10203 18.5589C0.0479113 18.8216 0.284835 19.0517 0.545796 18.9899L5.30439 17.8624C6.52695 18.4714 7.90015 18.8232 9.35345 18.8454C14.4822 18.9237 18.7587 14.8513 18.9185 9.72448C19.0899 4.22885 14.5542 -0.251654 9.03932 0.0109879ZM14.7174 14.6406C13.3238 16.0342 11.4709 16.8017 9.50004 16.8017C8.34605 16.8017 7.24122 16.5427 6.21615 16.0321L5.55345 15.702L2.63594 16.3932L3.25006 13.4121L2.92357 12.7727C2.39143 11.7306 2.1216 10.6036 2.1216 9.42322C2.1216 7.45236 2.88908 5.5995 4.28268 4.20586C5.66382 2.82471 7.54694 2.04474 9.50018 2.04474C11.471 2.04479 13.3238 2.81226 14.7174 4.20581C16.111 5.59941 16.8785 7.45226 16.8785 9.42308C16.8785 11.3764 16.0985 13.2595 14.7174 14.6406Z" fill="#D93A4D"/>
<path d="M14.0733 11.4666L12.248 10.9425C12.008 10.8737 11.7496 10.9417 11.5748 11.1199L11.1284 11.5747C10.9402 11.7664 10.6546 11.828 10.4055 11.7272C9.54204 11.3778 7.72572 9.76287 7.26187 8.95509C7.12805 8.72207 7.15018 8.43076 7.31449 8.21814L7.70418 7.71399C7.85686 7.51646 7.88908 7.25118 7.78811 7.02285L7.02017 5.286C6.83623 4.86999 6.30463 4.7489 5.95734 5.04262C5.44791 5.47348 4.84347 6.12822 4.76999 6.85358C4.64044 8.13244 5.1889 9.74456 7.26291 11.6803C9.65896 13.9166 11.5777 14.2121 12.827 13.9094C13.5356 13.7378 14.1018 13.0498 14.4592 12.4864C14.7029 12.1023 14.5105 11.5922 14.0733 11.4666Z" fill="#D93A4D"/>
</svg>
