<svg width="19" height="19" viewBox="0 0 19 19" xmlns="http://www.w3.org/2000/svg">
<g clip-path="url(#clip0_847_251)">
<path d="M0.335718 9.16091L4.7137 10.7949L6.40825 16.2446C6.51667 16.5936 6.94348 16.7226 7.22677 16.491L9.66713 14.5016C9.92293 14.2931 10.2873 14.2827 10.5546 14.4768L14.9562 17.6724C15.2592 17.8927 15.6885 17.7266 15.7645 17.3604L18.9889 1.85066C19.0719 1.45065 18.6788 1.11694 18.2979 1.26426L0.330588 8.19552C-0.112809 8.36652 -0.108945 8.99428 0.335718 9.16091ZM6.13515 9.92509L14.6914 4.65531C14.8451 4.56088 15.0033 4.76881 14.8713 4.89129L7.80994 11.4552C7.56174 11.6862 7.40163 11.9954 7.35628 12.331L7.11574 14.1136C7.08389 14.3516 6.74955 14.3752 6.68387 14.1449L5.75876 10.8943C5.65281 10.5235 5.80721 10.1275 6.13515 9.92509Z" fill="#D93A4D"/>
</g>
<defs>
<clipPath id="clip0_847_251">
<rect width="19" height="19" fill="white"/>
</clipPath>
</defs>
</svg>
